<svg width="66" height="23" viewBox="0 0 66 23" fill="none" xmlns="http://www.w3.org/2000/svg">
<g clip-path="url(#clip0_178_13443)">
<path d="M47.3407 0.939272C46.3002 0.492877 44.65 0 42.6095 0C37.4003 0 33.7322 3.00405 33.7096 7.29893C33.6664 10.4677 36.336 12.2277 38.3327 13.2842C40.3734 14.3639 41.0671 15.0685 41.0671 16.031C41.0464 17.5089 39.4181 18.1902 37.8994 18.1902C35.7935 18.1902 34.665 17.839 32.9501 17.0167L32.2556 16.6642L31.5175 21.6167C32.7546 22.2262 35.0339 22.7672 37.4003 22.7908C42.9351 22.7908 46.5385 19.8332 46.5812 15.2564C46.6023 12.7449 45.1926 10.8205 42.1535 9.24798C40.3085 8.23852 39.1787 7.55784 39.1787 6.525C39.2003 5.58604 40.1344 4.62431 42.2169 4.62431C43.9317 4.57719 45.1917 5.02297 46.1462 5.46905L46.6233 5.70332L47.3407 0.939272Z" fill="#1E1E23"/>
<path d="M28.2193 22.462H22.9445L26.2438 0.399902H31.5184L28.2193 22.462Z" fill="#1E1E23"/>
<path fill-rule="evenodd" clip-rule="evenodd" d="M56.7808 0.399902H60.861L65.1165 22.4618H60.2324C60.2324 22.4618 59.7545 19.9269 59.6031 19.1523H52.8305C52.6346 19.7387 51.7234 22.4618 51.7234 22.4618H46.1886L54.0239 2.23041C54.5667 0.798571 55.5226 0.399902 56.7808 0.399902ZM56.4558 8.47341C56.4558 8.47341 54.7842 13.3788 54.3498 14.6463H58.7342C58.5174 13.5432 57.5184 8.26221 57.5184 8.26221L57.1498 6.3612C56.9946 6.85038 56.7704 7.5228 56.6189 7.97673L56.6187 7.97742V7.97766L56.6186 7.97775L56.6185 7.97819C56.5159 8.28562 56.4469 8.49242 56.4558 8.47341Z" fill="#1E1E23"/>
<path d="M18.5369 0.399902L13.3711 15.4441L12.8065 12.393C12.8064 12.3923 12.8062 12.3917 12.806 12.3912L10.9615 2.25442C10.6578 0.845362 9.7244 0.446383 8.57406 0.399902H0.0872507L0.000427246 0.845674C2.07032 1.4181 3.92167 2.24297 5.54382 3.26858L10.2453 22.4387H15.8235L24.1147 0.399902H18.5369Z" fill="#1E1E23"/>
</g>
<defs>
<clipPath id="clip0_178_13443">
<rect width="65.1167" height="22.7908" fill="white"/>
</clipPath>
</defs>
</svg>
