<svg xmlns="http://www.w3.org/2000/svg" viewBox="0 0 200 200"><defs><style>.cls-3{fill:none}</style></defs><g style="isolation:isolate"><g id="Layer_2" data-name="Layer 2"><g id="Layer_1-2" data-name="Layer 1"><circle cx="100" cy="100" r="100" style="mix-blend-mode:multiply" fill="#f4f4f4"/><circle cx="64.12" cy="31.36" r=".86" class="cls-3"/><circle cx="25.83" cy="120.54" r="3.68" class="cls-3"/><circle cx="166.78" cy="57.9" r="2.92" class="cls-3"/><circle cx="154.36" cy="160.5" r=".86" class="cls-3"/><path d="M120.36 68.14a141.76 141.76 0 0 1-9.51 11.39c-7.23 7.9-20.07 20.64-40.17 36.42q-1.77 1.39-3.49 2.82a37.92 37.92 0 0 0 11 12.07q.79.56 1.61 1.08a37.84 37.84 0 0 0 41.89-1l.29-.2a38.28 38.28 0 0 0 4.77-4.05 37.81 37.81 0 0 0-6.37-58.59zM100 124.33a5.51 5.51 0 1 1 5.51-5.51 5.52 5.52 0 0 1-5.51 5.51zM128.12 98a18.41 18.41 0 0 1-26 0 3 3 0 1 1 4.24-4.24 12.43 12.43 0 0 0 17.56 0 3 3 0 0 1 4.2 4.24z" class="cls-3"/><path d="M120.93 61.51a3 3 0 0 0-3.79.77l-.07.1-.05.08s-3.07 4.8-10.72 13.14c-12.8 14-28.41 27-39.26 35.54q-2.79 2.19-5.47 4.47l-.1.08a169.2 169.2 0 0 0-18.57 18.38 144 144 0 0 0-14.69 20.25 116.8 116.8 0 0 0-5.14 9.57q2.1 2.52 4.35 4.9a108.22 108.22 0 0 1 6.08-11.64 138.31 138.31 0 0 1 14.06-19.31 161.53 161.53 0 0 1 15-15.12 43.92 43.92 0 0 0 10.88 12.1 55.6 55.6 0 0 1-8.88 28.71 3 3 0 1 0 5 3.25 61.58 61.58 0 0 0 9.64-28.22 43.9 43.9 0 0 0 37.8 1.8q1.91-.81 3.72-1.78a61.58 61.58 0 0 0 9.64 28.22 3 3 0 1 0 5-3.25 55.6 55.6 0 0 1-8.88-28.71A44.18 44.18 0 0 0 131 131a43.81 43.81 0 0 0-10-69.46zm5.8 65.22a38.28 38.28 0 0 1-4.77 4.05l-.29.2a37.84 37.84 0 0 1-41.89 1q-.82-.52-1.61-1.08a37.92 37.92 0 0 1-11-12.07q1.72-1.42 3.49-2.82c20.1-15.78 32.94-28.51 40.17-36.42a141.76 141.76 0 0 0 9.51-11.39 37.81 37.81 0 0 1 6.37 58.59z"/><path d="M174.37 87.77a176.45 176.45 0 0 1-35-27.16 55.66 55.66 0 0 0-78.77 0 176.45 176.45 0 0 1-35 27.16A174.66 174.66 0 0 1 0 100.21q0 3.2.21 6.34a180.71 180.71 0 0 0 28.47-13.61 182.46 182.46 0 0 0 36.18-28.08 49.66 49.66 0 0 1 70.29 0 182.46 182.46 0 0 0 36.17 28.08 180.71 180.71 0 0 0 28.47 13.61q.2-3.15.21-6.34a174.66 174.66 0 0 1-25.63-12.44zM164.51 139.56a182.82 182.82 0 0 1-12.84-15.42 3 3 0 0 0-4.88 3.5A184.85 184.85 0 0 0 160 143.56a184 184 0 0 0 14.44 14.08q2.24 1.95 4.47 3.74 1.85-2.37 3.55-4.85a171.75 171.75 0 0 1-17.95-16.97zM139.6 169.41z"/><path d="M123.88 93.73a12.43 12.43 0 0 1-17.56 0 3 3 0 1 0-4.24 4.27 18.41 18.41 0 0 0 26 0 3 3 0 0 0-4.24-4.24z"/><circle cx="100" cy="118.81" r="5.51"/><path d="M111 27.5h5.12v5.12a3 3 0 0 0 6 0V27.5h5.12a3 3 0 1 0 0-6h-5.14v-5.12a3 3 0 0 0-6 0v5.12H111a3 3 0 1 0 0 6zM181.82 113a3 3 0 0 0-4.24 0l-2.58 2.53-2.52-2.53a3 3 0 0 0-4.24 4.24l2.55 2.55-2.55 2.55a3 3 0 1 0 4.24 4.24L175 124l2.55 2.55a3 3 0 0 0 4.24-4.24l-2.55-2.55 2.55-2.55a3 3 0 0 0 .03-4.21zM20.38 72.4a3 3 0 0 0 4.24 0l2.88-2.88 2.88 2.88a3 3 0 0 0 4.24-4.24l-2.88-2.88 2.88-2.88a3 3 0 0 0-4.24-4.24L27.5 61l-2.88-2.88a3 3 0 0 0-4.24 4.24l2.88 2.88-2.88 2.88a3 3 0 0 0 0 4.28zM64.12 36.5A5.14 5.14 0 1 0 59 31.36a5.14 5.14 0 0 0 5.12 5.14zm0-6a.86.86 0 1 1-.86.86.87.87 0 0 1 .86-.86zM154.36 155.36a5.14 5.14 0 1 0 5.14 5.14 5.14 5.14 0 0 0-5.14-5.14zm0 6a.86.86 0 1 1 .86-.86.87.87 0 0 1-.86.86zM166.78 66.82a8.92 8.92 0 1 0-8.92-8.92 8.93 8.93 0 0 0 8.92 8.92zm0-11.83a2.92 2.92 0 1 1-2.92 2.92 2.92 2.92 0 0 1 2.92-2.91zM35.51 120.54a9.68 9.68 0 1 0-9.68 9.68 9.69 9.69 0 0 0 9.68-9.68zm-13.37 0a3.68 3.68 0 1 1 3.68 3.68 3.69 3.69 0 0 1-3.67-3.68zM54.21 100.58A3 3 0 0 0 56 100c.69-.52 16.94-13 28.29-25.33a3 3 0 1 0-4.42-4.06c-11 12-27.34 24.49-27.5 24.61a3 3 0 0 0 1.82 5.39z"/><path fill="#4782b2" d="M139.6 169.41a88 88 0 0 1-79.24 0 70.64 70.64 0 0 1-7.74 9.93L47.34 185a100.08 100.08 0 0 0 105.32 0l-5.31-5.69a70.63 70.63 0 0 1-7.75-9.9z"/></g></g></g></svg>