<?xml version="1.0" encoding="utf-8"?>
<!-- Generator: Adobe Illustrator 26.3.1, SVG Export Plug-In . SVG Version: 6.00 Build 0)  -->
<svg version="1.1" id="Layer_1" xmlns="http://www.w3.org/2000/svg" xmlns:xlink="http://www.w3.org/1999/xlink" x="0px" y="0px"
	 viewBox="0 0 300 300" style="enable-background:new 0 0 300 300;" xml:space="preserve">
<style type="text/css">
	.st0{fill:none;stroke:#000000;stroke-width:4;stroke-miterlimit:10;}
</style>
<path className="st0" d="M145.8,16.8c71.7-1.8,133.6,62.5,132.5,135.5c-1,69.7-59.1,129.6-125.1,131C73.2,284.9,9,199.7,23.8,122.5
	C34.3,67.1,84.9,18.3,145.8,16.8z"/>
<path className="st0" d="M142.9,141.8c8.4,3.4,31.4-57.7,55.1-55.1c12.3,1.4,21.2,19.6,23.8,32.8c11.4,56.1-69.1,122.5-89.3,111.7
	c-5.7-3.1-2.1-10-10.4-25.3c-11.7-21.6-26.3-21.6-38.7-38.7c-10.8-14.9-19.6-42.1-7.4-62.5c13.9-23.4,51.1-31.4,64-19.4
	C154.9,99.2,135.9,139,142.9,141.8z"/>
</svg>


